# xmcd
# 
# Track frame offsets:
#     150
#     23990
#     40625
#     61655
#     88042
#     106612
#     125010
#     141162
#     164262
#     181980
#     199017
#     210900
#     224030
#     245785
# 
# Disc length: 3537
# 
# Revision: 4
# Processed by: cddbd v1.5.2PL0 Copyright (c) Steve Scherf et al.
# Submitted via: fre:ac v1.0.27
# 
DISCID=c30dcf0e
DTITLE=Greg Brown - One More Goodnight Kiss
DYEAR=1986
DGENRE=American Folk
TTITLE0=One More Goodnight Kiss
TTITLE1=Say a Little Prayer
TTITLE2=Mississippi Moon
TTITLE3=Cheapest Kind
TTITLE4=Canned Goods
TTITLE5=I Can't Get Used to It
TTITLE6=Rooty Toot Toot For the Moon
TTITLE7=Walking Down to Casey's
TTITLE8=Speed Trap Boogie
TTITLE9=Our Little Town
TTITLE10=Wash My Eyes
TTITLE11=Cronies
TTITLE12=It Gets Lonely in a Small Town
TTITLE13=I Wish I Was a Painter
EXTD=
EXTT0=
EXTT1=
EXTT2=
EXTT3=
EXTT4=
EXTT5=
EXTT6=
EXTT7=
EXTT8=
EXTT9=
EXTT10=
EXTT11=
EXTT12=
EXTT13=
PLAYORDER=
